<svg width="54" height="54" viewBox="0 0 54 54" fill="none" xmlns="http://www.w3.org/2000/svg">
<circle cx="27" cy="27" r="25" fill="black" stroke="#FFD101" stroke-width="4"/>
<path d="M22.254 28.8254L30.2858 28.8254" stroke="white" stroke-width="2" stroke-linecap="round"/>
<path d="M22.254 23.7142L27.3651 23.7142" stroke="white" stroke-width="2" stroke-linecap="round"/>
<path d="M22.254 34.6666L27.3651 34.6666" stroke="white" stroke-width="2" stroke-linecap="round"/>
<path d="M35.3968 28.7443V33.7778C35.3968 36.6062 35.3968 38.0204 34.5182 38.8991C33.6395 39.7778 32.2253 39.7778 29.3968 39.7778H22.4127C19.5843 39.7778 18.1701 39.7778 17.2914 38.8991C16.4127 38.0204 16.4127 36.6062 16.4127 33.7778V20.9524C16.4127 18.124 16.4127 16.7098 17.2914 15.8311C18.1701 14.9524 19.5843 14.9524 22.4127 14.9524H24.5488" stroke="white" stroke-width="2" stroke-linecap="round"/>
<path d="M33.9365 14.9524L33.9365 23.7143" stroke="white" stroke-width="2" stroke-linecap="round"/>
<path d="M38.3175 19.3334L30.2858 19.3334" stroke="white" stroke-width="2" stroke-linecap="round"/>
</svg>
